<svg width="20" height="18" viewBox="0 0 20 18" fill="none" xmlns="http://www.w3.org/2000/svg">
<path d="M18.7994 8.21558L19.4575 7.85572L18.7994 8.21558ZM18.7994 9.78456L19.4574 10.1444L18.7994 9.78456ZM1.20058 8.21544L1.8586 8.57531L1.20058 8.21544ZM1.20057 9.78442L0.54254 10.1443H0.54254L1.20057 9.78442ZM17.5236 5.30907C17.227 5.0199 16.7522 5.0259 16.463 5.32247C16.1738 5.61904 16.1798 6.09387 16.4764 6.38304L17.5236 5.30907ZM7.68628 13.9596C7.28505 13.8567 6.87638 14.0986 6.7735 14.4998C6.67062 14.9011 6.91249 15.3097 7.31372 15.4126L7.68628 13.9596ZM12.604 3.34114L12.4099 4.06559L12.604 3.34114ZM5.07264 13.7089L4.70374 14.3619L5.50475 13.0959L5.07264 13.7089ZM1.8586 8.57531C3.43153 5.69919 6.4879 3.75 9.99997 3.75V2.25C5.91882 2.25 2.36847 4.51686 0.542558 7.85557L1.8586 8.57531ZM18.1414 9.42469C16.5685 12.3008 13.5121 14.25 10 14.25V15.75C14.0812 15.75 17.6315 13.4831 19.4574 10.1444L18.1414 9.42469ZM18.1414 8.57544C18.2862 8.84022 18.2862 9.15992 18.1414 9.42469L19.4574 10.1444C19.8475 9.43118 19.8475 8.56898 19.4575 7.85572L18.1414 8.57544ZM0.542558 7.85557C0.152487 8.56882 0.15248 9.43102 0.54254 10.1443L1.8586 9.42456C1.7138 9.15979 1.7138 8.84008 1.8586 8.57531L0.542558 7.85557ZM16.4764 6.38304C17.1347 7.02488 17.6974 7.76347 18.1414 8.57544L19.4575 7.85572C18.9413 6.91179 18.2876 6.05403 17.5236 5.30907L16.4764 6.38304ZM10 14.25C9.20019 14.25 8.42506 14.1491 7.68628 13.9596L7.31372 15.4126C8.17323 15.633 9.07349 15.75 10 15.75V14.25ZM9.99997 3.75C10.8346 3.75 11.6423 3.85991 12.4099 4.06559L12.7981 2.6167C11.905 2.37739 10.9668 2.25 9.99997 2.25V3.75ZM3.92995 11.9904C3.09529 11.2678 2.39151 10.399 1.8586 9.42456L0.54254 10.1443C1.16202 11.2771 1.97944 12.2858 2.94816 13.1244L3.92995 11.9904ZM5.44154 13.0559C4.90181 12.751 4.3956 12.3935 3.92995 11.9904L2.94816 13.1244C3.48873 13.5924 4.07659 14.0076 4.70374 14.3619L5.44154 13.0559ZM3.00695 13.1704L4.64054 14.3219L5.50475 13.0959L3.87116 11.9444L3.00695 13.1704ZM12.4099 4.06559C13.1269 4.2577 13.8096 4.53359 14.4471 4.88219L15.1668 3.56615C14.426 3.161 13.6321 2.84016 12.7981 2.6167L12.4099 4.06559Z" fill="#4D4D4D"/>
<path d="M17.4648 1.46433L2.46484 16.4643" stroke="#4D4D4D" stroke-width="1.5" stroke-linecap="round" stroke-linejoin="round"/>
<path d="M7 9C7 7.34315 8.34315 6 10 6" stroke="#4D4D4D" stroke-width="1.5" stroke-linecap="round"/>
</svg>
