<svg width="20" height="14" viewBox="0 0 20 14" fill="none" xmlns="http://www.w3.org/2000/svg">
<path d="M18.7994 6.21558L19.4575 5.85572L18.7994 6.21558ZM18.7994 7.78456L19.4574 8.14443L18.7994 7.78456ZM1.20058 6.21544L1.8586 6.57531L1.20058 6.21544ZM1.20057 7.78442L0.54254 8.14428H0.54254L1.20057 7.78442ZM17.5236 3.30907C17.227 3.0199 16.7522 3.0259 16.463 3.32247C16.1738 3.61904 16.1798 4.09387 16.4764 4.38304L17.5236 3.30907ZM7.68628 11.9596C7.28505 11.8567 6.87638 12.0986 6.7735 12.4998C6.67062 12.9011 6.91249 13.3097 7.31372 13.4126L7.68628 11.9596ZM12.604 1.34114L12.4099 2.06559L12.604 1.34114ZM5.07264 11.7089L4.70374 12.3619L5.50475 11.0959L5.07264 11.7089ZM1.8586 6.57531C3.43153 3.69919 6.4879 1.75 9.99997 1.75V0.25C5.91882 0.25 2.36847 2.51686 0.542558 5.85557L1.8586 6.57531ZM18.1414 7.42469C16.5685 10.3008 13.5121 12.25 10 12.25V13.75C14.0812 13.75 17.6315 11.4831 19.4574 8.14443L18.1414 7.42469ZM18.1414 6.57544C18.2862 6.84022 18.2862 7.15992 18.1414 7.42469L19.4574 8.14443C19.8475 7.43118 19.8475 6.56898 19.4575 5.85572L18.1414 6.57544ZM0.542558 5.85557C0.152487 6.56882 0.15248 7.43102 0.54254 8.14428L1.8586 7.42456C1.7138 7.15979 1.7138 6.84008 1.8586 6.57531L0.542558 5.85557ZM16.4764 4.38304C17.1347 5.02488 17.6974 5.76347 18.1414 6.57544L19.4575 5.85572C18.9413 4.91179 18.2876 4.05403 17.5236 3.30907L16.4764 4.38304ZM10 12.25C9.20019 12.25 8.42506 12.1491 7.68628 11.9596L7.31372 13.4126C8.17323 13.633 9.07349 13.75 10 13.75V12.25ZM9.99997 1.75C10.8346 1.75 11.6423 1.85991 12.4099 2.06559L12.7981 0.616697C11.905 0.377391 10.9668 0.25 9.99997 0.25V1.75ZM3.92995 9.99037C3.09529 9.26778 2.39151 8.39904 1.8586 7.42456L0.54254 8.14428C1.16202 9.27705 1.97944 10.2858 2.94816 11.1244L3.92995 9.99037ZM5.44154 11.0559C4.90181 10.751 4.3956 10.3935 3.92995 9.99037L2.94816 11.1244C3.48873 11.5924 4.07659 12.0076 4.70374 12.3619L5.44154 11.0559ZM3.00695 11.1704L4.64054 12.3219L5.50475 11.0959L3.87116 9.94439L3.00695 11.1704ZM12.4099 2.06559C13.1269 2.2577 13.8096 2.53359 14.4471 2.88219L15.1668 1.56615C14.426 1.161 13.6321 0.840156 12.7981 0.616697L12.4099 2.06559Z" fill="#0671E0"/>
</svg>
